<svg xmlns="http://www.w3.org/2000/svg" viewBox="0 0 20 12" width="20" height="12" fill="#000"><path d="M19.87 10.32a1.368 1.368 0 0 0-.067-.13c-.347-.624-1.009-1.39-1.987-2.298l-.02-.021-.01-.01-.011-.01h-.01c-.444-.424-.725-.708-.843-.854-.215-.277-.263-.558-.146-.842.083-.215.396-.67.936-1.363.285-.367.51-.662.676-.884 1.2-1.595 1.72-2.614 1.56-3.058l-.061-.103c-.042-.063-.15-.12-.323-.172-.173-.052-.395-.06-.666-.026l-2.995.02a.389.389 0 0 0-.208.006l-.135.031-.052.026-.042.032a.462.462 0 0 0-.114.109.714.714 0 0 0-.104.182 16.979 16.979 0 0 1-1.113 2.34c-.257.43-.492.802-.707 1.118a5.38 5.38 0 0 1-.541.697 3.92 3.92 0 0 1-.395.359c-.118.09-.208.128-.27.114a7.622 7.622 0 0 1-.178-.042.692.692 0 0 1-.234-.254 1.141 1.141 0 0 1-.12-.406 4.472 4.472 0 0 1-.036-.421 8.8 8.8 0 0 1 .006-.5c.007-.215.01-.36.01-.437 0-.263.005-.549.015-.858.01-.308.02-.553.027-.733.007-.18.01-.37.01-.572a2.33 2.33 0 0 0-.037-.473 1.619 1.619 0 0 0-.108-.333.56.56 0 0 0-.214-.25 1.202 1.202 0 0 0-.348-.14C10.647.08 10.179.036 9.61.029c-1.29-.014-2.119.07-2.486.25-.146.076-.278.18-.395.311-.125.153-.143.236-.053.25.417.062.711.211.884.447l.063.125c.049.09.097.25.146.479.048.228.08.481.093.759.035.506.035.94 0 1.3-.035.36-.067.641-.099.842a1.687 1.687 0 0 1-.265.718.179.179 0 0 1-.052.052.78.78 0 0 1-.28.052c-.098 0-.216-.049-.354-.146a2.495 2.495 0 0 1-.432-.4 5.353 5.353 0 0 1-.504-.713 12.433 12.433 0 0 1-.583-1.081l-.166-.302a25.946 25.946 0 0 1-.427-.848c-.18-.37-.34-.73-.478-1.076a.686.686 0 0 0-.25-.333L3.921.684a.712.712 0 0 0-.166-.089 1.104 1.104 0 0 0-.24-.067l-2.85.02c-.29 0-.488.066-.592.198L.03.808A.336.336 0 0 0 0 .975c0 .076.02.17.062.28a34.04 34.04 0 0 0 1.358 2.83c.489.908.913 1.64 1.274 2.194.36.555.728 1.079 1.102 1.57.375.493.623.809.744.947.121.14.217.243.286.312l.26.25c.166.166.41.366.733.598.323.232.68.461 1.072.687.391.225.847.409 1.367.55.52.143 1.027.2 1.519.173h1.196c.243-.021.426-.098.551-.23l.042-.052a.69.69 0 0 0 .078-.192c.024-.086.036-.182.036-.286a3.427 3.427 0 0 1 .068-.806c.051-.239.11-.42.177-.54a1.33 1.33 0 0 1 .4-.458.679.679 0 0 1 .083-.036c.167-.056.362-.002.588.16.225.164.437.365.635.604.197.24.435.508.712.806.277.298.52.52.728.666l.208.125c.139.083.32.16.541.229.222.069.416.086.582.052l2.663-.042c.263 0 .468-.044.614-.13.145-.087.232-.182.26-.286a.805.805 0 0 0 .005-.354 1.305 1.305 0 0 0-.073-.275z"/></svg>
