<svg xmlns="http://www.w3.org/2000/svg" viewBox="0 0 19 18" width="19" height="18" fill="#000"><path d="M12.62 8.914c-.106-2.074-1.646-3.321-3.505-3.321h-.07c-2.146 0-3.336 1.687-3.336 3.604 0 2.146 1.44 3.502 3.328 3.502 2.104 0 3.488-1.542 3.589-3.366l-.005-.419zM9.056 3.736c1.434 0 2.782.634 3.772 1.627v.003c0-.476.32-.835.766-.835h.112c.696 0 .84.658.84.866l.003 7.407c-.05.486.5.736.805.425 1.19-1.223 2.612-6.284-.74-9.216C11.49 1.279 7.3 1.729 5.07 3.266 2.7 4.9 1.184 8.517 2.657 11.915c1.605 3.705 6.2 4.81 8.93 3.708 1.383-.558 2.021 1.311.585 1.922-2.17.924-8.209.83-11.03-4.057-1.906-3.3-1.805-9.105 3.25-12.113C8.26-.927 13.36-.29 16.435 2.92c3.214 3.357 3.026 9.643-.108 12.086-1.42 1.11-3.53.03-3.517-1.587l-.015-.53a5.277 5.277 0 0 1-3.739 1.555c-2.833 0-5.325-2.492-5.325-5.326 0-2.86 2.492-5.383 5.325-5.383z"/></svg>
